<svg width="1080" height="1080" xmlns="http://www.w3.org/2000/svg" version="1.1" xml:space="preserve">
  <desc>Created with Fabric.js 5.2.4</desc>
  <g>
    <title>Layer 1</title>
    <g stroke="null" id="svg_6">
      <g stroke="null" id="c10cb774-2a56-42c2-a15b-93259bf889c4" />
      <g stroke="null" id="svg_2">
        <path stroke=" none" vector-effect="non-scaling-stroke"
          d="m462.98189,1059.23749c-21.9146,-11.84985 -58.77097,-36.53705 -80.68556,-55.29931c-29.88354,-23.69971 -57.77485,-35.54956 -94.63122,-42.46197c-29.88354,-3.94995 -65.74379,-12.83734 -80.68556,-18.76227c-40.84084,-15.7998 -78.69333,-73.07409 -93.6351,-144.17321c-9.96118,-44.43695 -23.90683,-77.02404 -49.8059,-110.59863c-46.81755,-60.23675 -63.75156,-100.72375 -63.75156,-152.07311c0,-44.43695 33.86801,-112.5736 75.70497,-155.03558c23.90683,-23.69971 37.85249,-59.24926 47.81367,-121.46099c12.94953,-74.06158 96.62345,-137.2608 182.28961,-137.2608c19.92236,0 44.82531,-13.82483 81.68168,-44.43695c106.58463,-89.86139 162.36725,-97.76129 256.99846,-35.54956c31.87578,21.72473 67.73603,49.37439 77.69721,62.21173c19.92236,22.71222 19.92236,22.71222 0,7.8999c-10.9573,-7.8999 -28.88742,-22.71222 -38.8486,-32.5871c-30.87966,-26.66217 -116.54581,-66.16168 -144.43712,-66.16168c-37.85249,0.98749 -98.61569,30.61212 -155.39442,78.01153c-37.85249,30.61212 -57.77485,40.487 -84.67004,40.487c-48.80979,0 -120.53029,37.52453 -141.44877,75.04907c-9.96118,16.78729 -22.91072,57.27429 -29.88354,88.8739c-7.96894,41.47449 -20.91848,69.12414 -43.8292,94.79882c-94.63122,104.6737 -95.62733,187.62267 -4.98059,294.27135c27.89131,32.5871 39.84472,57.27429 44.82531,93.81134c17.93013,113.56109 56.77873,155.03558 163.36336,171.82287c48.80979,7.8999 71.7205,17.77478 103.59628,44.43695c49.8059,42.46197 114.55358,75.04907 148.42159,75.04907c34.86413,-0.98749 96.62345,-31.59961 152.40606,-78.01153c35.86025,-30.61212 56.77873,-40.487 81.68168,-40.487c41.83696,0 100.60792,-22.71222 131.48759,-51.34936c22.91072,-21.72473 51.79814,-101.71124 51.79814,-144.17321c0,-13.82483 16.93401,-42.46197 38.8486,-67.14917c93.6351,-106.64868 94.63122,-187.62267 1.99224,-292.29637c-28.88742,-31.59961 -38.8486,-54.31183 -44.82531,-91.83636c-9.96118,-77.02404 -39.84472,-128.37341 -88.65451,-152.07311c-22.91072,-11.84985 -34.86413,-20.73724 -26.89519,-20.73724c25.89907,0 78.69333,37.52453 98.61569,70.11163c9.96118,16.78729 23.90683,55.29931 29.88354,86.89892c7.96894,40.487 22.91072,72.08661 55.78261,114.54858c82.6778,108.62365 79.68945,176.76031 -12.94953,289.33391c-24.90295,30.61212 -38.8486,61.22424 -47.81367,107.63616c-22.91072,104.6737 -60.7632,140.22326 -175.31678,160.9605c-33.86801,6.91241 -64.74767,20.73724 -87.65839,40.487c-46.81755,39.49951 -127.50311,78.01153 -164.35948,78.01153c-16.93401,0 -47.81367,-9.87488 -69.72826,-20.73724z"
          stroke-linecap=" butt" stroke-dasharray=" none" stroke-dashoffset="0" stroke-linejoin=" miter"
          stroke-miterlimit="4" fill="currentColor" fill-rule=" nonzero" id="svg_3" />
      </g>
      <g stroke="null" id="svg_4">
        <path stroke=" none" vector-effect="non-scaling-stroke"
          d="m473.60691,983.74859c-58.77097,-28.63714 -319.7539,-279.45903 -370.55592,-356.48308c-65.74379,-98.74877 -39.84472,-152.07311 181.29349,-368.33293c152.40606,-150.09814 221.13821,-195.52257 272.93635,-182.68523c57.77485,13.82483 119.53417,61.22424 249.02952,190.58514c208.18868,207.37243 233.09163,257.7343 175.31678,354.5081c-38.8486,65.17419 -295.84707,319.94603 -361.59086,356.48308c-66.73991,38.51202 -81.68168,38.51202 -146.42936,5.92493zm149.41771,-88.8739c-15.93789,-11.84985 -14.94177,-12.83734 13.94565,-13.82483c16.93401,0 38.8486,-6.91241 46.81755,-15.7998c10.9573,-9.87488 15.93789,-10.86237 15.93789,-2.96246c0,12.83734 6.97283,6.91241 111.56522,-94.79882c37.85249,-35.54956 66.73991,-68.13665 65.74379,-72.08661c-3.98447,-17.77478 14.94177,-39.49951 29.88354,-34.56207c10.9573,2.96246 12.94953,1.97498 4.98059,-3.94995c-11.95342,-8.88739 -6.97283,-91.83636 5.97671,-91.83636c8.96506,0 7.96894,-41.47449 -1.99224,-56.2868c-4.98059,-6.91241 -3.98447,-12.83734 0.99612,-12.83734c5.97671,0 12.94953,-6.91241 15.93789,-15.7998c2.98835,-7.8999 1.99224,-12.83734 -2.98835,-9.87488c-9.96118,6.91241 -20.91848,-16.78729 -20.91848,-44.43695c0,-9.87488 -3.98447,-18.76227 -9.96118,-18.76227c-4.98059,0 -9.96118,-5.92493 -9.96118,-12.83734c0,-6.91241 -43.8292,-54.31183 -96.62345,-105.66119c-110.56911,-105.66119 -159.37889,-149.11065 -148.42159,-130.34838c10.9573,18.76227 -0.99612,13.82483 -24.90295,-9.87488c-11.95342,-12.83734 -17.93013,-16.78729 -13.94565,-8.88739c5.97671,10.86237 -7.96894,11.84985 -73.71274,8.88739c-44.82531,-1.97498 -75.70497,-0.98749 -68.73215,3.94995c11.95342,6.91241 3.98447,11.84985 -13.94565,8.88739c-4.98059,0 -7.96894,4.93744 -7.96894,10.86237c0,9.87488 -1.99224,9.87488 -8.96506,0c-4.98059,-8.88739 -36.85637,15.7998 -111.56522,88.8739c-102.60016,99.73626 -170.33619,172.81036 -135.47206,147.13567c19.92236,-15.7998 23.90683,0.98749 3.98447,17.77478c-7.96894,5.92493 -12.94953,23.69971 -11.95342,40.487c0.99612,15.7998 -1.99224,29.62463 -6.97283,29.62463c-12.94953,0 -8.96506,70.11163 6.97283,112.5736c7.96894,21.72473 11.95342,42.46197 9.96118,46.41192c-2.98835,3.94995 0.99612,8.88739 8.96506,11.84985c7.96894,2.96246 21.9146,21.72473 30.87966,40.487c20.91848,44.43695 93.6351,116.52355 107.58075,107.63616c4.98059,-2.96246 6.97283,-0.98749 3.98447,3.94995c-3.98447,5.92493 0,13.82483 8.96506,16.78729c7.96894,2.96246 12.94953,9.87488 9.96118,14.81232c-3.98447,4.93744 4.98059,7.8999 18.92624,5.92493c15.93789,-0.98749 24.90295,2.96246 24.90295,10.86237c0,12.83734 12.94953,15.7998 67.73603,16.78729c11.95342,0 21.9146,2.96246 21.9146,5.92493c0,2.96246 20.91848,4.93744 46.81755,3.94995c56.77873,-0.98749 84.67004,4.93744 77.69721,17.77478c-2.98835,4.93744 0.99612,5.92493 9.96118,2.96246c13.94565,-5.92493 13.94565,-7.8999 -1.99224,-19.74975zm333.69955,-423.63224c-2.98835,-2.96246 -8.96506,1.97498 -11.95342,11.84985c-5.97671,13.82483 -4.98059,14.81232 4.98059,5.92493c6.97283,-6.91241 9.96118,-14.81232 6.97283,-17.77478z"
          stroke-linecap=" butt" stroke-dasharray=" none" stroke-dashoffset="0" stroke-linejoin=" miter"
          stroke-miterlimit="4" fill="currentColor" fill-rule=" nonzero" id="svg_5" />
      </g>
    </g>
  </g>
</svg>
