<svg width="115" height="115" xmlns="http://www.w3.org/2000/svg" clip-rule="evenodd" version="1.1">
  <g>
    <title>Layer 1</title>
    <g id="svg_1">
      <path id="svg_2" opacity="0.955"
        d="m102.5,78.5c1.26,-3.9033 2.927,-7.57 5,-11c1.731,-4.1822 2.231,-8.5156 1.5,-13c-2.557,-5.2235 -5.891,-9.8902 -10,-14c0.1525,-15.8475 -7.6808,-23.6808 -23.5,-23.5c-12.6667,-14 -25.3333,-14 -38,0c-7.6872,-0.4399 -14.1872,2.0601 -19.5,7.5c-1.5489,2.8117 -2.3822,5.8117 -2.5,9c-0.3876,5.6152 -2.8876,10.2819 -7.5,14c-5.04683,6.268 -5.7135,12.9347 -2,20c2.76081,3.8504 5.7608,7.5171 9,11c0.4974,2.646 0.6641,5.3127 0.5,8c0,2 0,4 0,6c-2.0531,-4.363 -3.5531,-9.0297 -4.5,-14c-13.85266,-13.2399 -13.85266,-26.5733 0,-40c0.8651,-15.5318 9.0317,-23.6984 24.5,-24.5c5.8665,-5.93267 12.8665,-9.76601 21,-11.5c8.1335,1.73399 15.1335,5.56733 21,11.5c15.4479,0.7812 23.615,8.9478 24.5,24.5c3.726,4.728 7.059,9.728 10,15c0.81,4.7574 0.476,9.4241 -1,14c-2.37,4.0969 -5.203,7.7635 -8.5,11z"
        fill="#ac733a" />
    </g>
    <g id="svg_3">
      <path id="svg_4"
        d="m107.5,67.5c-2.667,3 -5.333,6 -8,9c-0.5768,-1.2733 -1.2435,-1.2733 -2,0c-1.4501,1.3498 -2.1168,3.0165 -2,5c-3.5562,-0.2251 -3.8895,0.6082 -1,2.5c-0.0699,0.7648 -0.4033,1.2648 -1,1.5c-0.06,-0.5431 -0.3933,-0.8764 -1,-1c-3.3276,2.9936 -6.6609,5.9936 -10,9c-2.9872,0.4478 -3.9872,1.9478 -3,4.5c-4.0988,2.711 -5.4321,1.8773 -4,-2.5c8.6613,-8.8285 17.1613,-17.8285 25.5,-27c4.039,-5.4979 4.372,-11.1645 1,-17c-11.5,-14.1667 -24.3333,-27 -38.5,-38.5c-4.6667,-2 -9.3333,-2 -14,0c-4.3639,3.5083 -8.6972,7.0083 -13,10.5c-0.9232,-0.8029 -1.9232,-0.9696 -3,-0.5c-4.527,4.527 -9.027,9.027 -13.5,13.5c-0.4643,-0.5944 -0.631,-1.2611 -0.5,-2c4.4645,-3.9632 8.7978,-8.1298 13,-12.5c-7.1144,-0.0607 -11.4477,3.4393 -13,10.5c-1.8724,2.2562 -3.0391,4.9228 -3.5,8c-0.4966,-2.3098 -0.6633,-4.6432 -0.5,-7c0.1178,-3.1883 0.9511,-6.1883 2.5,-9c5.3128,-5.4399 11.8128,-7.9399 19.5,-7.5c12.6667,-14 25.3333,-14 38,0c15.8192,-0.1808 23.6525,7.6525 23.5,23.5c4.109,4.1098 7.443,8.7765 10,14c0.731,4.4844 0.231,8.8178 -1.5,13z"
        fill="#f2ba7c" />
    </g>
    <g id="svg_5">
      <path id="svg_6"
        d="m75.5,95.5c-3.7877,3.3989 -7.7877,6.566 -12,9.5c-3.9785,1.612 -7.9785,1.779 -12,0.5c-0.4528,-0.958 -1.1195,-1.792 -2,-2.5c2.2352,-0.067 4.4019,0.433 6.5,1.5c6.6517,-2.014 12.1517,-5.6807 16.5,-11c2.9732,-1.3103 5.3065,-3.3103 7,-6c8.2732,-6.7689 15.2732,-14.6022 21,-23.5c-1.2994,-3.1347 -1.2994,-6.3013 0,-9.5c-10.0859,-13.5417 -21.7526,-25.5417 -35,-36c-0.6924,0.5253 -1.1924,1.1919 -1.5,2c-1.3957,-2.0268 -3.0624,-2.3602 -5,-1c-0.3333,-1.3333 -0.6667,-2.6667 -1,-4c-0.8661,4.3065 -1.8661,4.6399 -3,1c-0.5696,3.3438 -1.7362,3.6772 -3.5,1c-2.952,0.5678 -5.6187,1.7344 -8,3.5c-10.9627,10.2893 -21.1293,21.1227 -30.5,32.5c-2.1289,7.3133 -0.2956,13.4799 5.5,18.5c-0.5442,0.7172 -1.2109,1.2172 -2,1.5c-2.3373,-3.1809 -4.504,-6.5142 -6.5,-10c-0.76734,-4.0935 -0.434,-8.0935 1,-12c7.9684,-9.8024 16.4684,-19.1358 25.5,-28c4.3028,-3.4917 8.6361,-6.9917 13,-10.5c4.6667,-2 9.3333,-2 14,0c14.1667,11.5 27,24.3333 38.5,38.5c3.372,5.8355 3.039,11.5021 -1,17c-8.3387,9.1715 -16.8387,18.1715 -25.5,27z"
        fill="#d08433" />
    </g>
    <g id="svg_7">
      <path id="svg_8"
        d="m79.5,87.5c-0.1567,-1.3734 0.01,-2.7068 0.5,-4c3.424,-3.3265 6.2573,-7.1598 8.5,-11.5c-0.1938,-1.9033 -0.1938,-3.7367 0,-5.5c1.7706,-1.4876 3.1039,-3.321 4,-5.5c-2.6667,-1.3333 -2.6667,-2.6667 0,-4c-0.948,-0.4828 -1.948,-0.6495 -3,-0.5c0.4321,-3.3774 -0.2345,-6.3774 -2,-9c-4.6543,-5.6716 -9.9877,-11.1716 -16,-16.5c-11.1296,-4.2173 -21.7963,-3.884 -32,1c0.3333,0.3333 0.6667,0.6667 1,1c-3.3385,1.5162 -6.1718,3.6829 -8.5,6.5c-0.3333,1.3333 -0.6667,2.6667 -1,4c-0.3173,-1.8008 -0.984,-2.1341 -2,-1c-1.4662,4.7547 -3.2995,9.2547 -5.5,13.5c0.2652,4.2049 0.2652,8.7049 0,13.5c0.825,0.8857 1.825,1.219 3,1c1.468,3.729 3.1347,7.3957 5,11c-0.9279,1.2678 -1.0946,2.6011 -0.5,4c9.0158,9.1792 20.0158,13.5125 33,13c2.5056,-2.3635 5.3389,-4.0302 8.5,-5c-4.3483,5.3193 -9.8483,8.986 -16.5,11c-2.0981,-1.067 -4.2648,-1.567 -6.5,-1.5c0.8805,0.708 1.5472,1.542 2,2.5c-12.8708,-9.1977 -24.5375,-19.8644 -35,-32c0.7891,-0.2828 1.4558,-0.7828 2,-1.5c-5.7956,-5.0201 -7.6289,-11.1867 -5.5,-18.5c9.3707,-11.3773 19.5373,-22.2107 30.5,-32.5c2.3813,-1.7656 5.048,-2.9322 8,-3.5c1.7638,2.6772 2.9304,2.3438 3.5,-1c1.1339,3.6399 2.1339,3.3065 3,-1c0.3333,1.3333 0.6667,2.6667 1,4c1.9376,-1.3602 3.6043,-1.0268 5,1c0.3076,-0.8081 0.8076,-1.4747 1.5,-2c13.2474,10.4583 24.9141,22.4583 35,36c-1.2994,3.1987 -1.2994,6.3653 0,9.5c-5.7268,8.8978 -12.7268,16.7311 -21,23.5z"
        fill="#e79646" />
    </g>
    <g id="svg_9">
      <path id="svg_10"
        d="m19.5,34.5c0,-0.6667 0,-1.3333 0,-2c1.5523,-7.0607 5.8856,-10.5607 13,-10.5c-4.2022,4.3702 -8.5355,8.5368 -13,12.5z"
        fill="#ac733a" />
    </g>
    <g id="svg_11">
      <path id="svg_12"
        d="m80.5,22.5c5.768,-0.3418 9.9347,2.3248 12.5,8c0.7494,1.135 0.5827,2.135 -0.5,3c-4.0201,-3.6886 -8.0201,-7.3553 -12,-11z"
        fill="#ac733a" />
    </g>
    <g id="svg_29">
      <path id="svg_30"
        d="m36.5,23.5c-9.0316,8.8642 -17.5316,18.1976 -25.5,28c-1.434,3.9065 -1.76734,7.9065 -1,12c1.996,3.4858 4.1627,6.8191 6.5,10c10.4625,12.1356 22.1292,22.8023 35,32c4.0215,1.279 8.0215,1.112 12,-0.5c4.2123,-2.934 8.2123,-6.1011 12,-9.5c-1.4321,4.3773 -0.0988,5.211 4,2.5c-0.9872,-2.5522 0.0128,-4.0522 3,-4.5c-1.0624,1.0754 -1.0624,2.0754 0,3c6.019,-1.3523 9.6857,-5.019 11,-11c0.5967,-0.2352 0.9301,-0.7352 1,-1.5c-2.8895,-1.8918 -2.5562,-2.7251 1,-2.5c-0.1168,-1.9835 0.5499,-3.6502 2,-5c0.7565,-1.2733 1.4232,-1.2733 2,0c-0.6196,7.6562 -3.2863,14.4895 -8,20.5c-5.1282,2.093 -10.4616,3.426 -16,4c-12.6667,14 -25.3333,14 -38,0c-11.3539,0.753 -18.6872,-4.0808 -22,-14.5c0.1641,-2.6873 -0.0026,-5.354 -0.5,-8c-3.2392,-3.4829 -6.23919,-7.1496 -9,-11c-3.7135,-7.0653 -3.04683,-13.732 2,-20c4.6124,-3.7181 7.1124,-8.3848 7.5,-14c-0.1633,2.3568 0.0034,4.6902 0.5,7c0.4609,-3.0772 1.6276,-5.7438 3.5,-8c0,0.6667 0,1.3333 0,2c-0.131,0.7389 0.0357,1.4056 0.5,2c4.473,-4.473 8.973,-8.973 13.5,-13.5c1.0768,-0.4696 2.0768,-0.3029 3,0.5z"
        fill="#f2ba7c" />
    </g>
    <g id="svg_39">
      <path id="svg_40"
        d="m93.5,85.5c-1.3143,5.981 -4.981,9.6477 -11,11c-1.0624,-0.9246 -1.0624,-1.9246 0,-3c3.3391,-3.0064 6.6724,-6.0064 10,-9c0.6067,0.1236 0.94,0.4569 1,1z"
        fill="#ac733a" />
    </g>
    <g id="svg_41">
      <path id="svg_42" d="m19.5,83.5c4.4645,3.9632 8.7978,8.1298 13,12.5c-8.0168,-0.1811 -12.3502,-4.3477 -13,-12.5z"
        fill="#ac733a" />
    </g>
    <g id="svg_43">
      <path id="svg_44" opacity="0.878"
        d="m23.5,100.5c4.4124,0.402 8.7457,1.235 13,2.5c4.6027,3.876 9.6027,7.209 15,10c3.6667,0.667 7.3333,0.667 11,0c2.7003,-2.225 5.7003,-3.725 9,-4.5c-12.2421,10.057 -23.5754,8.891 -34,-3.5c-4.8314,-1.398 -9.498,-2.898 -14,-4.5z"
        fill="#ac733a" />
    </g>
    <g id="svg_45">
      <path id="svg_46" opacity="0.918"
        d="m107.5,67.5c-2.073,3.43 -3.74,7.0967 -5,11c-0.628,7.6798 -3.2946,14.5132 -8,20.5c-6.0349,2.876 -12.3683,4.876 -19,6c-1.2051,1.376 -2.5384,2.542 -4,3.5c-3.2997,0.775 -6.2997,2.275 -9,4.5c-3.6667,0.667 -7.3333,0.667 -11,0c-5.3973,-2.791 -10.3973,-6.124 -15,-10c-4.2543,-1.265 -8.5876,-2.098 -13,-2.5c-4.3333,-1 -7,-3.6667 -8,-8c0,-2 0,-4 0,-6c3.3128,10.4192 10.6461,15.253 22,14.5c12.6667,14 25.3333,14 38,0c5.5384,-0.574 10.8718,-1.907 16,-4c4.7137,-6.0105 7.3804,-12.8438 8,-20.5c2.667,-3 5.333,-6 8,-9z"
        fill="#ac733a" />
    </g>
    <ellipse stroke="null" ry="35.67902" rx="35.95179" id="svg_17" cy="59.62346" cx="56.80063" fill="#e79646" />
    <rect transform="rotate(41.7706 34.9471 88.4629)" id="svg_19" height="2.10079" width="47.12279" y="87.41253"
      x="11.38567" fill="#d08433" />
    <path stroke="null" id="svg_20"
      d="m31.85124,80.51389c2.82316,4.7346 13.97463,11.8365 13.94639,11.79211c0.02823,0.04438 13.86171,3.00351 13.83347,2.95912c0.02823,0.04438 21.34307,-8.38912 21.31484,-8.4335c0.02824,0.04438 -6.8885,6.85037 -6.91674,6.80599c0.02824,0.04438 -9.00587,6.4065 -9.0341,6.36212c0.02824,0.04438 -13.52292,-0.39948 -13.55115,-0.44387c0.02823,0.04438 -8.15892,-4.3943 -8.01776,-4.3943c0.14116,0 -12.98652,-11.98445 -13.01476,-12.02884c0.02823,0.04438 -0.11292,-3.35861 -0.14116,-3.40299"
      opacity="NaN" fill="#d08433" />
  </g>

</svg>
